<?xml version="1.0" encoding="UTF-8"?>
<svg id="Layer_2" data-name="Layer 2" xmlns="http://www.w3.org/2000/svg" viewBox="0 0 114.29 100.34">
  <defs>
    <style>
      .cls-1 {
        fill: none;
      }

      .cls-1, .cls-2, .cls-3, .cls-4, .cls-5, .cls-6, .cls-7 {
        stroke-width: 0px;
      }

      .cls-2 {
        fill: #000;
      }

      .cls-3 {
        fill: #010101;
      }

      .cls-4 {
        fill: #fe87c3;
      }

      .cls-5 {
        fill: #fff;
      }

      .cls-6 {
        fill: #231f20;
      }

      .cls-7 {
        fill: #944e72;
      }
    </style>
  </defs>
  <g id="Layer_1-2" data-name="Layer 1">
    <g>
      <circle class="cls-5" cx="50.17" cy="50.17" r="50.17"/>
      <g>
        <path class="cls-3" d="M17.01,35.2c-.56-4.47,1.33-10.08,4.64-13.15-2.19,4.12-3.74,8.69-4.64,13.15Z"/>
        <path class="cls-3" d="M18.96,62.63l2.86,10.29c-.7-3.85.91-2.54-.47-2.2-.86-9.7-12.06-26.09-4.68-33.63-.88,5.36-.81,10.45.2,14.26.47,4.28.76,7.06,2.1,11.29Z"/>
        <path class="cls-3" d="M27.5,16.5l-.07.2-.1.29c-.07-.05-.12-.1-.19-.15-.07-.06-.14-.12-.21-.16-.01-.02-.03-.03-.04-.03-.96-.76-1.95-1.47-2.98-2.12,1.08.6,2.15,1.19,3.23,1.79.03.02.07.04.11.06.08.05.16.09.24.14Z"/>
        <path class="cls-3" d="M29.96,18.65l-.93-.21c-.4-.37-.81-.72-1.23-1.07l.39-.48s0,0,0-.01c0,0,0,0,0,0,.24.13.47.26.71.4l1.04,1.36Z"/>
        <path class="cls-3" d="M36.38,15.28c-.37-.63-.74-1.26-1.11-1.89.12.06.24.12.37.18h0c.4.2.8.4,1.2.6.5.5.92,1.1.92,1.1h-1.39Z"/>
        <path class="cls-3" d="M44.63,34.53c.18-.1.35-.19.53-.28-.13.28-.26.6-.39.95-15.06-1.99-20.63,3.07-22.53,11.06.21-5.18,1.98-8.79,6.56-9.56,6.24-6.12,11.55-7.06,15.84-2.17Z"/>
        <path class="cls-3" d="M51.11,11.8v.74l-.62-.39-.31-.26c-.13-.26-.28-.54-.47-.85-.09-.16-.18-.32-.29-.49-.06-.09-.12-.19-.18-.29.19.1.36.2.52.31.26.17.5.35.7.53.26.22.47.45.65.69Z"/>
        <path class="cls-3" d="M53.12,10.86c.1.16.19.33.28.5l-.49-.04c-.07-.16-.14-.33-.22-.49-.19-.43-.39-.87-.58-1.3-.02-.04-.04-.08-.05-.12-.04-.08-.07-.16-.11-.24.05.06.1.12.15.18.13.16.26.33.38.5.23.32.44.66.65,1.02Z"/>
        <path class="cls-3" d="M59.56,15.65c-.05.22-.09.43-.12.62l-.45-.1-.11-.3c.22-.05.45-.13.68-.23Z"/>
        <path class="cls-3" d="M80.46,50.69c-.1-2.49-1.64-6.1-2.78-7.76-4.19-5.94-10.75-12.59-17.82-13.57,11.02.72,20.26,24.39,20.6,21.33Z"/>
        <path class="cls-3" d="M51.17,78.85c-8.09-7.2-26.18,1.84-14.41,9.1l.1-.62s-3.18-6.74,12.39-5.49c1.66-.19,2.3-1.19,1.92-2.99Z"/>
        <path class="cls-3" d="M52.19,78.83c-.61,1.6.09,2.72,2.59,3.17,0,0,12.49-4.46,15.65-1.58,2.1,1.63.91,6.15.91,6.15l.52.83s4.64-8.83,0-11.95c-4.72-2.57-19.64,2.92-19.67,3.39Z"/>
        <path class="cls-1" d="M59.32,30.14c-3.38-.88-7.04-.42-10.85,2.15,0,0-1.65-1.65-3.31,1.96-.18.09-.35.18-.53.28-4.28-4.89-9.6-3.95-15.84,2.17-4.58.77-6.35,4.38-6.56,9.56,0,0,0,0,0,.01-1.76,7.45-.33,17.44-.41,26.66l-2.86-10.29c-1.34-4.22-1.63-7-2.1-11.29-1.01-3.8-1.08-8.89-.2-14.26.18-.2.37-.37.59-.54-.11-.43-.19-.89-.24-1.34.9-4.46,2.45-9.03,4.64-13.15,2.04-1.91,4.63-2.83,7.51-1.92-.8-.45-1.59-.9-2.39-1.36,1.2.63,2.51,1.04,3.86,1.2-.52-.53-1.05-1.04-1.59-1.54l.93.21-1.04-1.36c1.72.95,3.45,1.91,5.18,2.87-.14-1.11-.91-2.11-1.94-2.53,1.32.39,3.36-.81,1.93-1.97h2.5c-.07-.12-.14-.25-.22-.37h1.39s-.43-.6-.92-1.1c3.08,1.57,6.09,3.3,9,5.15-2.27-6.81,7.26-1.44,4.32-7.43l.31.26.62.39v-.74c1.55,1.99.97,4.29,4.44,5.35-.88-1.95-1.76-3.9-2.64-5.84l.49.04c1.4,2.5,2.6,5.29,5.48,4.52l.11.3.45.1c-.79,4.76,3.54,3.82,6.2.79,9,11.14,18.41,24.69,14.56,40.32"/>
        <path class="cls-3" d="M17.01,35.2c.05.46.13.91.24,1.34-.22.17-.41.35-.59.54.1-.62.22-1.25.35-1.89Z"/>
        <path class="cls-3" d="M26.77,18.78c.8.45,1.59.91,2.39,1.36-2.89-.91-5.48.01-7.51,1.92.16-.31.33-.63.5-.94.03-.17.71-.99,1.95-2.14l.7.26.07.03.2.07.32-.36.3-.33h.53v-.38l.46-.31.3.06,1.32.25.75.17c.54.5,1.08,1.01,1.59,1.54-1.34-.16-2.66-.57-3.86-1.2Z"/>
        <path class="cls-3" d="M35.64,13.57h0s-.01,0-.02.01h.01Z"/>
        <path class="cls-3" d="M36.6,15.65h-2.5c1.43,1.15-.62,2.35-1.93,1.97,1.03.42,1.8,1.42,1.94,2.53-1.73-.96-3.46-1.91-5.18-2.87l-.41-.55h1.15l1.07.92,1.08.38v-1.91l1.23.31.38-.31.54-.85h2.44c.07.12.14.25.22.37Z"/>
        <path class="cls-3" d="M45.5,17.42c-.02.47.07,1.06.31,1.79,0,.04.02.08.03.12-.02-.01-.03-.02-.05-.03-1.27-.81-2.54-1.58-3.84-2.33-1.68-.98-3.38-1.9-5.11-2.79-.43-.44-.91-.8-1.2-.6.26-.26.98-.9,1.33-.52.43.47.58,1.21.58,1.21l.86-.04-.89-1.9-.03-.07-.06-.12-.04-.09h.67l.2.22,2.3,2.44.31-1.13.35.08.23.24.35-.12v-.74l.98.58.54.2h.35l.58.43.7.2.58-1.68.79-1.29.54-.15.54,1.01,1.33-.15.73-.08.09-.45.07-.33.23.39.28.22c2.6,5.3-4.56,1.7-4.67,5.52Z"/>
        <path class="cls-3" d="M59.32,30.14c-4.01-.11-8.69,1.19-14.16,4.11,1.66-3.61,3.31-1.96,3.31-1.96,3.8-2.57,7.46-3.03,10.85-2.15Z"/>
        <path class="cls-3" d="M59.56,15.65c-.05.22-.09.43-.12.62l-.45-.1-.11-.3c.22-.05.45-.13.68-.23Z"/>
        <path class="cls-3" d="M78.89,31.93c-.05-.12-.1-.24-.14-.37-.14-.37-.3-.75-.45-1.13-.03-.07-.06-.14-.09-.21-.01-.05-.03-.09-.06-.13h0c-.01-.05-.03-.09-.06-.14h0c-.16-.41-.34-.82-.53-1.23-.02-.05-.05-.1-.07-.15-.05-.12-.1-.23-.16-.35-.06-.14-.13-.29-.2-.43h0c-.27-.57-.54-1.13-.84-1.7-.06-.12-.12-.24-.18-.35-.12-.22-.24-.44-.35-.66-.31-.58-.65-1.15-.99-1.72-.02-.04-.04-.07-.06-.1h0c-.17-.28-.34-.56-.52-.83-.22-.35-.45-.7-.69-1.04-.1-.15-.21-.3-.32-.45-.07-.1-.13-.19-.2-.29-.04-.05-.09-.11-.13-.16-.12-.18-.26-.37-.41-.55h0s-.01-.03-.03-.05c-.06-.09-.13-.18-.2-.27-.01-.03-.03-.05-.06-.07,0,0,0,0-.01-.01h0c-.09-.13-.2-.26-.3-.39-.15-.19-.3-.37-.47-.56,0,0,0-.02-.02-.03,0-.01-.01-.03-.03-.04h0c-.14-.18-.3-.36-.46-.54h0s-.03-.04-.04-.05c-.01-.02-.04-.04-.06-.06-.17-.2-.35-.41-.54-.6-.12-.14-.26-.28-.39-.42-.06-.06-.12-.12-.18-.18-.26-.27-.53-.53-.8-.78-.06-.06-.11-.11-.17-.16-.35-.33-.7-.64-1.07-.94-.1-.09-.21-.18-.31-.26l-.47.31-.7-1.22h0s-.08-.07-.12-.09c-.16-.12-.33-.24-.5-.35-.04-.03-.08-.06-.12-.09l-1.02.82v-.95l-.82-.56v-.43s0,0,0,0c0,0,0-.01-.01-.01-.11-.06-.22-.12-.33-.18-.06-.03-.11-.06-.17-.09h0s-.62.23-.62.23l-.68-.71-.08-.19c-.07-.03-.14-.06-.21-.09-.64-.28-1.29-.53-1.96-.75,0,0-.01,0-.02,0-.33-.11-.68-.22-1.01-.31l-1.05.1.12-.37h0c-.14-.04-.28-.08-.43-.12-.12-.03-.25-.06-.37-.09h0c-.09-.02-.17-.04-.26-.06-.07-.01-.14-.03-.21-.05-.16-.04-.32-.07-.49-.1-.14-.03-.28-.06-.41-.08,0,0-.01,0-.02,0h0c-.15-.03-.3-.06-.45-.09-.1-.02-.19-.04-.29-.05-.12-.02-.23-.04-.34-.06-.08-.01-.16-.03-.24-.03l-.03.09-.12.62-.58-.62-.14-.21c-.33-.04-.66-.08-.98-.1l-.55-.05c-.24-.02-.47-.03-.7-.04-.01,0-.03,0-.04,0l.05.12.25.57v2.58c.08.1.14.2.22.3.03.05.07.11.1.17,0,0,0,.01.01.02.06.09.11.18.16.28.05.08.09.16.12.24.07.14.14.28.2.41.13.3.24.58.37.88.04.09.08.19.12.29.01.03.03.05.04.09.05.12.11.24.17.36.03.07.07.14.12.22.04.07.08.14.12.21.05.07.09.14.14.21.05.07.09.13.14.19.05.07.1.13.16.19.16.18.34.34.55.5h0s.04.03.06.05c.06.05.12.09.19.12.09.06.18.11.28.16.07.04.13.07.2.1.28.14.6.26.96.37-.88-1.95-1.76-3.9-2.64-5.84l.49.04c1.4,2.5,2.6,5.29,5.48,4.52l-.9-2.36v-1.4l-.46-.43-.56-.51,1.33.11,2.75,2.01,1.49.92,1.7.7,1.7.35,1.4.83,1.97.83.06.15-.38.18h-.03s-.62-.18-.62-.18l-1.32-.04-1.02.15v-1.56l-.89-.07-.64-.05-1.02.03-1.91.04-1.29.86-.81-.17c-.79,4.76,3.54,3.82,6.2.79,8.4,10.39,17.4,19.1,15.45,32.91h0v.03h0v.03h0v.07c-.1.69-.24,1.38-.4,2.1,0,.03-.01.05-.02.09-.05.22-.1.45-.16.67,0,.03-.01.06-.02.09.03-.03.07-.05.1-.07.1-.08.2-.15.29-.22.03-.03.07-.05.1-.07.28-.21.52-.38.73-.53,1.42-1.06,1.12-1.08,1.26-3.95,0,0-.79-7.69-4.07-16.27ZM72.93,21.4l-2.22-2.06-1.11-1.59-.03-.07-.16.1-.9,1.17-.59.4.78,1.01h.39l1.1.27v.78h2.73ZM54.92,11.01l-1.59-.14.5.85,1.02.9.74.2-.67-1.8Z"/>
        <path class="cls-3" d="M24.86,19.27c.16-.09.33-.18.52-.29l-.32.36-.2-.07Z"/>
        <path class="cls-3" d="M25.95,18.65c.09-.05.17-.1.25-.15v.15h-.25Z"/>
        <path class="cls-3" d="M32.16,14.33l-.88-.34-.5.52-.16.81-1.2.28-.92.3v.05l-.03-.04-.18.06v.38l-.19-.25-.59.39h0s0,0,0,0l-.07.2-.1.29s.02.01.03.02c.08.06.15.12.22.18h0s-.39.2-.39.2l-.05.03-1.06.53c-.1.15-.59.77-1.3,1.3l-.7-.26c.12-.11.24-.22.37-.34.06-.05.12-.1.18-.16.03-.03.05-.05.09-.08h0c.06-.05.11-.1.18-.16h.01s.03-.04.05-.05c0,0,0,0,0,0,.15-.13.3-.26.47-.4h0c.17-.15.35-.3.54-.44h0c.09-.08.16-.14.25-.21.02-.02.04-.03.07-.05.1-.08.21-.16.31-.25.09-.07.18-.14.28-.21.09-.06.16-.12.25-.19.03-.02.07-.05.11-.09.09-.07.18-.12.27-.2h.01s.01-.01.01-.01c.06-.04.1-.08.16-.12.07-.05.14-.1.21-.14.11-.08.22-.16.33-.24,0,0,.02,0,.03-.01.07-.05.14-.1.21-.15.12-.09.25-.17.38-.26h0c.13-.09.26-.18.4-.26.09-.07.18-.12.28-.18.11-.07.23-.14.35-.22.08-.05.16-.1.24-.14.05-.03.1-.07.16-.1.23-.14.47-.29.71-.43h0c.16-.1.31-.19.47-.28.1-.07.21-.12.32-.19.07-.03.14-.07.2-.11h0s0,.05,0,.05l.14,1Z"/>
        <path class="cls-3" d="M30.63,15.65l1.4.53-.24-.06v1.91l-1.08-.38-1.07-.92h-1.15l.41.55,1.04,1.36-.93-.21-.75-.17-1.32-.25c.33-.22.62-.44.85-.65l.39-.48s0,0,0-.01c-.09-.05-.18-.1-.28-.15l.74-.38c.21-.15.47-.27.72-.36.62-.24,1.24-.33,1.24-.33h0Z"/>
        <path class="cls-3" d="M51.11,9.22v3.32l-.62-.39-.31-.26-.28-.22-.23-.39-.07.33-.09.45-.73.08-1.33.15-.54-1.01-.54.15-.79,1.29-.58,1.68-.7-.2-.58-.43h-.35l-.54-.2-.98-.58v.74l-.35.12-.23-.24-.35-.08-.31,1.13-2.3-2.44c.05,0,.09,0,.09,0l1.43-.51,1.85-.82.74-.24h-2.33l-.09.09-.2-.09h-.86v.62l-.06.33-.77.41h-.67l.04.09.06.12.03.07.89,1.9-.86.04s-.16-.74-.58-1.21c-.35-.39-1.07.26-1.33.52.29-.2.77.16,1.2.6.5.5.92,1.1.92,1.1h-3.83l-.54.85-.38.31-.99-.25.52-1.27.22-.34.28-.44.34-.54s.74-.13,1.38-.33l.87-.44c.06-.11.29-.2.6-.28l.74-.35h-1.7v.35l-.96.16-.79.09-.41-.09s.02,0,.03-.01c.19-.1.39-.2.58-.3l.19-.09h0c.3-.15.59-.3.9-.43h0s.05-.03.07-.03c.13-.07.26-.12.39-.18h0c.08-.03.15-.07.24-.1.24-.1.49-.21.73-.31.07-.03.14-.06.21-.09.25-.1.5-.21.77-.3.14-.06.28-.11.41-.16.26-.09.52-.19.8-.28h0s.09-.03.14-.05c.26-.09.54-.18.81-.26.02,0,.03-.01.05-.01.45-.14.92-.28,1.38-.4.05-.02.09-.03.14-.04.22-.06.43-.12.66-.17.07-.02.14-.03.21-.05.09-.03.18-.05.26-.07.02,0,.03,0,.05-.01.39-.09.77-.17,1.17-.24.1-.03.22-.05.33-.06.32-.07.65-.12.98-.16.2-.03.39-.06.6-.09.11-.02.23-.03.35-.05.09-.01.18-.02.27-.03.09-.01.18-.03.26-.03.2-.02.41-.04.62-.05l-.3.54-2.4.95h.09s0,0,0,0l3.02-.96,2.07.32-.75-.36-.14.11v-.18l-.25-.12-1.02-.34c.07-.01.13-.01.2-.02h0c.26-.02.5-.03.76-.04h0c.36-.02.73-.03,1.1-.03.03,0,.06,0,.09,0h.45c.05,0,.11,0,.17,0h.27c.14,0,.28.01.43.02.09,0,.17,0,.26,0l.05.12.25.57Z"/>
        <path class="cls-5" d="M51.55,8.58c-.24-.02-.47-.03-.7-.04l.69.49.57.49.37.31.47.41.38.64h0l1.59.14-.42-1.13-.31-1.01c-.08-.01-.16-.03-.24-.03l-.03.09-.12.62-.58-.62-.14-.21c-.33-.04-.66-.08-.98-.1l-.55-.05Z"/>
        <path class="cls-5" d="M58.88,15.88c.22-.05.45-.13.68-.23-.05.22-.09.43-.12.62l-.45-.1-.11-.3Z"/>
        <path class="cls-5" d="M69.8,16.86l-.45.21-.06-.15-1.97-.83-1.4-.83-1.7-.35-1.7-.7-1.49-.92-2.75-2.01-1.33-.11h0s-1.36-1.25-1.36-1.25l-1.06-.99c.1.01.19.03.29.05.15.03.3.05.45.08h0s.01,0,.02.01c.14.02.28.05.41.08.16.03.32.07.49.1.07.01.14.03.21.05.09.02.17.04.26.06h0c.12.03.25.07.37.09.14.04.28.08.43.12h0l-.12.37,1.05-.1c.33.1.68.2,1.01.31,0,0,.01,0,.02,0,.68.22,1.32.48,1.96.75.07.03.14.06.21.09l.08.19.68.71.62-.22h0c.06.03.11.05.17.09.11.06.22.12.33.18,0,0,.01.01.01.01,0,0,0,0,0,0v.43l.82.56v.95l1.02-.82s.09.05.12.09c.17.11.34.23.5.35.05.03.09.06.12.09h0s.7,1.23.7,1.23l.47-.31c.1.08.21.16.31.26.37.3.72.62,1.07.94.06.05.11.1.17.16.27.25.54.51.8.78.06.06.12.12.18.18Z"/>
        <path class="cls-5" d="M73.49,21.4h-.56l-2.22-2.06-1.11-1.59-.03-.07.62-.39c.19.2.37.4.54.6.05.04.08.07.1.11.16.18.32.35.46.53,0,0,.01,0,0,0,.02.01.03.03.03.04.02,0,.03.02.02.03.17.18.32.37.47.56.1.12.2.26.3.38h0s.02.01.01.02c.03.03.05.05.06.07.07.09.14.18.2.27.02.01.03.03.03.04,0,0,0,0,0,0h0c.14.18.28.37.41.55.22.3.44.6.65.9Z"/>
        <path class="cls-5" d="M77.49,28.57l-.7.8-.28-1.37-.62-.54-.59-.82-1.13-2.03-.2-.43-.08-.82.28-.74v-.17c1.27,1.98,2.37,4.05,3.31,6.12Z"/>
        <path class="cls-2" d="M28.46,15.9l-.18.06v.38l-.19-.25-.59.39h0s0,0,0,0l-.07.2-.1.29s.02.01.03.02l-.04.02-.39.2-.24.12-.64.32-1.06.54-.09.05v-.05s.05-.41.05-.41h.73l.36-.16.27-.12-.09-.37-.05-.22-.02-.07v-.63l.45.62h0s.31.1.31.1l.21.07v-.79l.38-.07h.02s0,0,0,0l.12.2.04-.33.05-.36.07-.57.43.54.03.04.18.23Z"/>
        <path class="cls-2" d="M28.66,16.34c.21-.15.47-.27.72-.36l-.72.36Z"/>
        <polygon class="cls-2" points="32.02 13.33 32.16 14.33 31.28 13.99 30.78 14.51 30.62 15.31 29.42 15.59 28.5 15.89 28.5 14.28 28.34 13.62 29 14.75 29.28 14.95 29.63 15.19 29.84 15.11 30.25 14.97 29.91 14.54 29.89 14.52 29.72 14.31 30.3 14.02 30.51 13.92 30.51 13.33 30.25 12.82 30.92 13.1 30.92 13.33 31.49 13.59 31.81 13.64 32.02 13.68 32.02 13.33"/>
        <path class="cls-2" d="M33.38,13.58s.74-.13,1.38-.33l-1.72.87.34-.54Z"/>
        <path class="cls-2" d="M36.23,12.54l-.6.28c.06-.11.29-.2.6-.28Z"/>
        <path class="cls-2" d="M41.85,8.93v.99l-.05.02-.16.08-1.42.66h-.17l-.09.09-.2-.09h-.86v.62l-1.93.9h-1.7v.35l-.96.16-.79.09-.41-.09c-.37.19-.74.39-1.1.58v-1.08l.05-.28.13-.72.13.56v.38l.94.12.45.12.19-.09h0l.77-.05h.06s.15-.41.15-.41l.23-.63.07-.49.15-.98.18,1.82.73.1.21.03v-1.95l1.13-1.22-.66,1.35.71.82h0s.31.35.31.35l.49-.63h0l.32-.42.21-.27v-1.68l.73,1.39-.28.65.71.3.66-.59.16-.15.26-1.5.02-.1v-.88l.58,1.79Z"/>
        <polygon class="cls-1" points="28.1 16.1 27.51 16.49 27.55 16.15 27.55 16.15 27.55 16.15 27.63 15.49 27.76 15.66 27.93 15.88 28.1 16.1"/>
        <polygon class="cls-1" points="28.88 15.21 29.42 15.59 28.5 15.89 28.5 15.94 28.46 15.9 28.29 15.96 28.29 14.68 28.13 14.02 28.5 14.65 28.79 15.15 28.88 15.21 28.88 15.21"/>
        <polygon class="cls-1" points="31.02 13.87 31.28 13.99 30.78 14.51 30.62 15.31 29.42 15.59 30.05 15.37 29.84 15.11 29.56 14.76 29.51 14.71 29.89 14.52 30.3 14.32 30.3 13.73 30.05 13.22 30.51 13.41 30.71 13.5 30.71 13.73 31.01 13.87 31.02 13.87"/>
        <path class="cls-1" d="M33.14,12.69l.38.1-.41-.09c-.37.19-.74.39-1.1.58v.05l.14,1-.88-.34.52.09v-1.48l.19-1.01.07.32.05.24v.38l.65.09h0l.29.04.07.02Z"/>
        <polyline class="cls-1" points="32.77 14.57 35.43 13.22 37.28 12.36 37.5 12.25 37.91 12.06 37.97 12.04 38.84 11.63"/>
        <path class="cls-1" d="M27.44,16.69l-.09-.14-.2.03-.21.04v.79l-.24-.07-.28-.09-.11-.16-.12-.16-.22-.3v.63l.02.1h0l.07.28v.03s.07.25.07.25c0,0,0,0,0,0l-.62.28h-.74l-.02.2-.03.26,1.39-.71,1.06-.53.05-.03.39-.2"/>
        <polyline class="cls-1" points="28.19 16.89 28.2 16.88 28.5 16.73 30.62 15.65 30.63 15.65"/>
        <path class="cls-1" d="M40.88,10.68l.72-.33.04-.02v-.99l-.39-1.21-.19-.58v.88l-.22,1.24-.02.11-.05.25-.72.66-.09.09-.2-.09-.5-.22.16-.39.11-.26-.52-.99-.21-.4v1.68l-.18.24-.84,1.08-.31-.34-.21-.24-.5-.58.66-1.35-.92.99-.21.23v1.95l-.94-.13-.03-.3-.1-.93-.06-.58-.22,1.48-.09.26h0l-.13.38-.14.39-.83.06-.19.09.79-.09.96-.16v-.35h1.7l-.74.35c-.31.07-.54.16-.6.28l-.87.44c-.64.2-1.38.33-1.38.33l-.34.54-3.66,1.86c-.26.09-.51.21-.72.36l-.74.38c-.14-.08-.28-.16-.41-.23"/>
        <path class="cls-2" d="M46.44,9.16l-2.4.95h0l-1.99-.16.12-.56v-.05s-.07-.49-.07-.49l.07-.13.66-1.29.09.77.42.07v.49l.16.08.16.2.2.26.77.3v-1.52l-.2-.92.57.89.58.7v.48l.27-.5.65-1.24-.23-.79.62.77.35.65.79.45h0l.3.17v.35l-.25-.12-1.02-.34c-.11,0-.22.01-.33.03l-.3.54Z"/>
        <polygon class="cls-2" points="77.15 22.7 75.75 25.09 75.24 25.94 73.93 23.28 73.05 21.52 72.93 21.4 70.71 19.34 69.6 17.75 69.57 17.68 69.35 17.07 69.29 16.92 67.32 16.09 65.93 15.26 64.23 14.91 62.52 14.21 61.03 13.3 58.29 11.29 56.96 11.18 54.92 11.01 53.33 10.88 53.32 10.88 53.13 10.86 53.12 10.86 52.69 10.82 51.11 10.69 49.76 10.58 49.76 10.58 49.42 10.55 44.14 10.11 47.17 9.16 49.23 9.48 48.48 9.12 49.24 8.53 49.24 8.5 49.07 7.64 49.8 7 49.5 7.85 49.8 8.15 49.86 8.51 49.98 9.26 50.12 8.73 50.12 7.88 50.56 7.14 50.68 7.68 50.48 8.03 50.84 8.17 51.51 8.5 51.55 8.58 51.71 8.93 52.1 8.93 52.1 8.06 52.5 7.88 53.22 7.5 53.22 7.88 53.09 8.31 52.95 8.54 53.07 8.72 53.22 8.93 53.8 9.56 53.92 8.93 53.95 8.84 54.16 8.15 54.16 7.14 54.53 8.15 54.65 8.31 55.28 9.07 55.3 9.08 55.71 9.32 55.71 7.82 56.01 8.54 56.3 8.93 56.41 9.31 56.48 9.56 56.66 9.37 56.67 9.37 57.3 8.73 57.51 7.88 57.63 8.31 58.27 9.26 57.57 9.29 57.47 9.58 57.36 9.94 58.41 9.85 59.3 9.76 60.3 9.18 60.3 7.85 60.74 8.5 61.68 9.82 61.39 10.47 61.61 11.01 61.68 11.2 62.36 11.91 62.98 11.69 62.98 11.68 63.3 10.97 63.3 10.29 63.51 11.58 63.51 12.41 64.33 12.97 64.33 13.92 65.34 13.1 65.71 12 66.3 12.38 66.01 12.53 65.92 12.82 66.1 13.62 66.1 13.63 66.8 14.85 67.26 14.53 67.93 14.09 68.98 14.55 68.8 13.23 69.36 14.85 68.98 15.14 68.65 15.73 69.36 16.17 70.3 16.32 70.3 14.91 70.71 16.76 70.71 17.26 70.83 17.98 70.83 18.53 71.51 18.53 71.51 17.28 73.24 17.76 72.27 18.14 72.21 18.53 72.18 19.34 72.12 19.54 72.12 19.54 72.01 19.91 72.42 19.94 72.43 19.94 73.49 20.02 72.97 20.66 74.21 20.47 75.7 20.41 74.8 21.64 74.94 22.44 74.77 23.05 74.69 23.26 74.69 23.27 76.12 23.27 76.68 22.76 76.68 22.44 77.15 22.7"/>
        <polygon class="cls-2" points="80.58 27.47 79.8 29.88 79.36 31.14 78.75 31.56 78.21 31.94 76.88 29.26 76.69 28.88 76.06 27.6 75.24 25.94 76.28 26.09 76.29 26.1 78.98 26.5 77.33 27.41 77.13 27.79 77.13 27.79 77.12 27.79 76.92 28.17 77.32 28.22 78.15 28.32 78.98 28.49 78.08 29.95 77.86 30.32 78.14 30.09 78.14 30.08 79.8 28.73 80.58 27.47"/>
        <line class="cls-1" x1="80.92" y1="26.72" x2="80.58" y2="27.47"/>
        <path class="cls-5" d="M24.79,19.24l.07.03c-.26.14-.47.25-.6.31.19-.1.37-.22.53-.34Z"/>
        <path class="cls-5" d="M25.67,18.65h.28c-.2.12-.39.23-.58.33l.3-.33Z"/>
        <path class="cls-5" d="M26.66,17.96l.3.06c-.24.16-.49.32-.75.48v-.23l.46-.31Z"/>
        <path class="cls-5" d="M26.12,17.91l1.03-.5-1.06.53s.01-.02.02-.03c0,0,0,0,0,0Z"/>
        <path class="cls-5" d="M27.59,17.19l-.39.2.12-.37v-.04s.03.01.04.02c.08.06.15.12.22.18h0Z"/>
        <path class="cls-5" d="M28.66,16.34c-.22.14-.39.32-.47.53-.09-.05-.18-.1-.28-.15l.74-.38Z"/>
        <polygon class="cls-5" points="28.29 16.34 28.1 16.1 28.29 15.96 28.29 16.34"/>
        <polygon class="cls-5" points="28.5 15.94 28.46 15.9 28.5 15.89 28.5 15.94"/>
        <polygon class="cls-5" points="32.01 13.29 32.02 13.28 32.02 13.33 32.01 13.29"/>
        <path class="cls-5" d="M32.78,12.63l.33.07c-.37.19-.74.39-1.1.58l.75-.66h0Z"/>
        <path class="cls-5" d="M34.76,13.26l.87-.44c-.09.16-.45.31-.87.44Z"/>
        <path class="cls-5" d="M38.07,12.04l.2.22c-.13.01-.41.03-.74.07-.09.01-.17.02-.26.03-.35.04-.74.1-1.05.18l.74-.35.47-.07.47-.07.16-.02Z"/>
        <polygon class="cls-5" points="40.05 10.68 39.96 10.76 39.76 10.68 40.05 10.68"/>
        <polygon class="cls-5" points="42.38 10.68 43.01 10.48 42.45 10.68 42.38 10.68"/>
        <polygon class="cls-5" points="44.04 10.11 44.14 10.11 43.01 10.48 44.04 10.11 44.04 10.11"/>
        <path class="cls-5" d="M46.81,8.5l.26.09c-.11,0-.22.01-.33.03l.07-.12Z"/>
        <polygon class="cls-5" points="48.48 9.12 48.33 9.23 48.33 9.05 48.48 9.12"/>
        <path class="cls-3" d="M44.29,15.96s-7.45,2.39-4.26,5.44,4.74,13.8,4.74,13.8l1.02-6.57s-2.15-4.33-1.27-6.19,1.55-3.17,1.27-4.19-.74-1.67-.74-1.67l-.76-.62Z"/>
        <path class="cls-3" d="M35.63,20.01s7.44,3.41,5.17,9.36c1.75.77,2.42,2.62,2.42,2.62,0,0-3.65-4.18-5.61-2.62s-5.05,3.38-5.05,3.38l-3.76,3.95s-.65-1.17,3.31-5.88,6.1-4.1,6.1-4.1c0,0,4.05-1.45-2.58-6.71Z"/>
        <path class="cls-3" d="M50.51,16.58l-3.15.7v1.37l-1.51,3.41s-2.06.93,0,3.52,0,5.82,0,5.82l3.01-4.31-1.53-1.52-.75-1.59s-1.49-1.41,1.98-4.32,2.54-4.77,2.54-4.77c0,0-.78,2.8-1.88,3.06l1.28-1.38Z"/>
        <path class="cls-6" d="M84.03,52.44s-.03-.37-.88-.36l-1.46.07-.69.03h-.33s-.07.02-.07.02l-4.94.24-.66.03s-.03,0-.1,0h0c-.16.02-.49.05-.96.09h0c-2.13.2-6.92.7-9.63,1.25,0,0-6.01,1.27-7.53,1.64,0,0-2.09.6-3.32.71l-2.67.35-2.69.24c-1.23.16-3.4.03-3.4.03-1.57-.02-7.72.07-7.72.07-3.63.09-10.75,1.05-10.75,1.05l-4.85.85-3.17.56s-.08.02-.12.03c-.01,0-.03.01-.05.01-.66.2-.62.51-.62.51l.43,3.82.09.1.31.2.88.72c.26.18.52.68.71,1.16,0,0,0,0,0,.01.22.54.37,1.04.37,1.04l1.02,2.99h0s.25.75.25.75h0s.02.05.02.05c.04.1.07.19.11.28.05.15.11.3.17.43.66,1.54,1.13,1.97,1.13,1.97.71.93,2.24,1.04,2.24,1.04,4.35.77,10.5-.07,10.5-.07,5.02-.54,8.56-1.82,8.56-1.82,1.46-.53,2.02-1.96,2.02-1.96.17-.31,1.06-2.54,1.06-2.54.66-1.88,1.43-5.57,1.43-5.57.13-.56.44-1.01.44-1.01.32-.64,2.07-.77,2.07-.77,0,0,1.74-.26,2.19.29,0,0,.4.38.66.89,0,0,1.57,3.44,2.62,5.11,0,0,1.35,1.98,1.59,2.26,0,0,.86,1.27,2.39,1.47,0,0,3.74.47,8.75-.12,0,0,6.18-.54,10.24-2.24,0,0,1.47-.44,1.96-1.51,0,0,.47-.68.78-2.92l.43-3.99s.12-1.9.58-2.41l.7-.89.26-.26.06-.11-.43-3.82ZM47,61.87c0,2-1.07,6.49-1.07,6.49-.39,1.5-1.04,2.43-1.04,2.43-.35.56-1.67,1.19-1.67,1.19-4.97,1.78-12.15,1.97-12.15,1.97-2.53.15-4.97-.24-4.97-.24-1.51-.15-2-.52-2-.52-.35-.2-.77-.93-.77-.93-.57-.8-1.48-3.86-1.48-3.86-.04-.11-.08-.26-.12-.41t0-.01h0c-.47-1.84-.98-5.59-.98-5.59-.09-.7.13-1.01.13-1.01.12-.3.33-.53.56-.7.41-.31.87-.43.87-.43,9.54-3.25,21.16-2.1,21.16-2.1,2.15.18,2.67.93,2.67.93.96.79.86,2.79.86,2.79ZM81.61,61.73s-.21,3.19-.59,4.1c0,0-.24.81-.54,1.08,0,0-.4.47-1.83.94,0,0-2.3.91-4.79,1.32,0,0-7.04,1.4-12.27.75,0,0-1.44-.33-1.9-.79,0,0-.83-.76-1.54-2.14,0,0-2.03-4.14-2.47-6.09,0,0-.54-1.91.22-2.9,0,0,.33-.85,2.39-1.5,0,0,6.96-2.31,14.85-2.73.65-.04,1.3-.07,1.96-.07,1.01-.02,2.03,0,3.04.08h0c.41.03.83.07,1.23.1,0,0,.83.01,1.4.52.01.01.03.03.05.05.05.05.08.08.13.14t0,.01s.01.02.02.03c.01.01.02.02.03.03,0,0,.29.26.35.96,0,0,.39,4.47.25,6.1Z"/>
        <g>
          <path class="cls-7" d="M114.28,41.61c-1.44-.34-2.46-.28-3.11-.15.6.56.7,1.27.8,2.21,0,0-.02.95,1.46-.15.63-.47.89-1.17.84-1.91Z"/>
          <path class="cls-7" d="M76.08,52.38c.87.19,1.5.41,1.96.67.46-.15.8-.29.8-.29.69-.21,1.69-.1,2.79.17-.2-.78-.69-1.52-1.36-2.03-1.52-1.15-2.96-.81-2.96-.81,0,0-3.92,2.32-1.23,2.29Z"/>
          <path class="cls-4" d="M77.24,50.38c-3.12,3.84-3.73,8.25-2.32,13.1l-3.69,3.94c-3.08-10.37,5.08-18.15,6.02-17.04Z"/>
          <path class="cls-4" d="M82.06,55.39c-4.26,2.52-8.71,2.47-13.3.36l-4.44,3.07c9.8,4.58,18.7-2.34,17.74-3.43Z"/>
        </g>
        <path class="cls-3" d="M47.37,31.4c5.38-6.33,3.62-5.39,1.87-6.96s3.44-6.73,3.44-6.73c0,0,.72-2.45-.73-2.81,0,0,2.34.69,2.59,3.35-2.59,2.35-3.68,3.21-3.79,4.54s1.2,2.79,1.2,2.79l-4.58,5.82Z"/>
        <path class="cls-3" d="M29.96,21.4c-4.19-.08-6.54-.07-7.62,2.66s-5.22,9.29-3.07,10.19-.06-.48.97-2.84,8.3-6.81,13.13-5.75,3.36-2.1,1.9-3.21l-5.31-1.04Z"/>
      </g>
    </g>
  </g>
</svg>